<svg width="146" height="42" viewBox="0 0 146 42" fill="none" xmlns="http://www.w3.org/2000/svg">
<path fill-rule="evenodd" clip-rule="evenodd" d="M57.5754 8.80711C54.4054 8.80711 42.4015 22.5615 38.8313 25.5001C39.4403 24.109 41.4842 21.4503 41.751 21.187C41.9844 20.9567 42.0013 20.4216 41.4257 20.4216C40.7669 20.4216 39.1566 21.5657 36.6042 22.3397C39.115 19.2284 41.0255 16.0508 41.0255 13.9109C41.0255 13.0549 40.8003 11.9518 39.449 11.9518C34.3936 11.9518 29.0134 17.1457 27.9371 20.9734C27.4282 21.4755 26.5108 22.4136 25.6597 23.706C25.6346 23.7227 25.6264 23.7308 25.6013 23.7556C24.6254 24.7185 10.9865 36.2424 2.37785 36.5714C3.71273 29.147 22.8154 5.31713 32.325 4.83975C31.9746 6.70825 29.6973 9.32551 27.3866 11.5894C25.7013 12.1903 22.5317 14.7255 20.7382 16.4953C20.0041 17.2197 18.7112 20.5532 20.3627 20.5532C21.3554 20.5532 34.3269 10.5688 34.3269 4.42818C34.3269 3.2922 33.5512 1.82715 31.6073 1.82715C19.7953 1.82715 0 23.3517 0 38.0284C0 40.0776 1.19281 41.4034 2.79448 41.4034C8.51685 41.4034 19.0694 32.4891 23.9575 27.6653C23.8072 28.3568 23.7072 29.0893 23.7072 29.8628C23.7072 31.1634 24.2664 32.2087 25.3925 32.2087C26.7187 32.2087 30.8649 28.8008 34.5521 24.7514C35.8449 24.5539 36.8628 24.2573 37.6303 23.9445C35.67 26.6032 32.5082 31.8301 34.8609 31.8301C36.4123 31.8301 43.2942 24.2573 48.1243 18.7672C46.4477 21.714 44.9292 25.41 44.9292 28.9658C44.9292 32.678 46.7561 34.991 46.7561 33.6657C46.7561 25.813 52.1029 16.6517 57.5754 11.2436C58.268 10.5602 58.5681 8.80666 57.5754 8.80666V8.80711ZM38.7646 15.499C38.5979 17.0218 35.7033 20.2237 32.6251 23.0141C32.3835 23.0222 32.1665 23.0551 31.9161 23.0551C26.8694 23.0551 33.1007 15.8772 38.7646 15.4986V15.499ZM25.9768 27.961C26.0768 26.8331 27.0778 24.9565 28.012 23.4748C28.3793 24.224 29.155 24.7424 30.431 24.9069C28.5876 26.4297 26.911 27.6067 25.9768 27.9605V27.961Z" fill="white"/>
<path fill-rule="evenodd" clip-rule="evenodd" d="M80.2902 14.3381C78.3715 14.3381 72.2238 18.6841 68.4946 21.8617C69.2119 20.8574 70.0794 19.7462 71.047 18.5859C80.6571 13.0872 89.8912 4.52679 89.8912 1.6048C89.8912 0.798341 89.4074 0 88.6481 0C85.9121 0 73.6661 10.3879 67.777 18.4051C66.6339 18.9569 65.5161 19.4586 64.432 19.8787C66.0419 17.5905 67.1515 15.3515 67.1515 13.6556C67.1515 12.7996 66.9263 11.6965 65.575 11.6965C59.9024 11.6965 53.5962 17.6149 53.5295 21.0557C52.3367 22.6033 50.9434 25.056 50.9434 28.3075C50.9434 29.608 51.5021 30.6534 52.6286 30.6534C54.1134 30.6534 58.7434 26.8258 62.3803 22.5208C63.5398 22.1588 64.7326 21.7058 65.9505 21.1792C65.0912 22.6939 64.5905 24.0273 64.5905 25.0889C64.5905 26.2578 64.7326 27.2292 65.4996 27.2292C65.8665 27.2292 66.5924 26.4719 67.1264 25.7227C69.5372 22.3477 75.8434 17.6888 79.097 17.0965C78.5214 20.0681 70.947 27.3771 67.8606 28.999C68.1694 27.7066 69.4038 26.2087 68.9702 26.2087C68.3613 26.2087 65.9254 28.5627 65.9254 29.7563C65.9254 31.2462 66.5928 32.9912 67.8025 32.9912C70.2215 32.9912 81.7585 20.5288 81.7585 15.7054C81.7667 15.1374 81.2496 14.339 80.2902 14.339V14.3381ZM65.0163 14.9557C64.5489 16.3797 62.4054 18.8902 59.9445 21.2446C59.102 21.4173 58.3012 21.5327 57.6169 21.5327C52.6117 21.5408 59.627 15.3921 65.0158 14.9557H65.0163ZM53.1207 26.5535C53.2376 25.6808 53.7799 24.2405 54.414 22.8327C54.9814 23.2195 55.8402 23.4584 57.0499 23.4584C57.2002 23.4584 57.3583 23.4417 57.5086 23.4417C55.8822 24.8166 54.3052 25.9607 53.1207 26.5535ZM86.8134 4.4195C84.019 7.76162 78.5967 12.2555 74.0169 15.2104C78.8717 9.93441 84.6526 4.72378 86.8134 4.4195Z" fill="white"/>
<path fill-rule="evenodd" clip-rule="evenodd" d="M141.953 10.6421C131.517 10.6421 107.05 26.232 103.647 24.6683C104.189 22.1001 107.034 19.1615 108.185 18.0255C109.019 17.2023 107.1 15.3338 106.366 16.0664C105.482 16.9391 99.5008 20.9312 96.4893 22.495C98.2079 20.2231 101.912 16.5438 102.863 15.5971C103.755 14.7163 102.371 12.667 101.136 13.8931C100.302 14.7163 89.2571 24.0178 82.7252 24.6268C82.7668 23.8943 83.1592 22.9557 83.7928 21.9189C86.1035 21.3013 91.9428 17.8362 93.8698 15.9347C95.9886 13.844 96.0302 10.5186 93.8698 10.5186C90.0241 10.5186 80.8818 18.4866 80.8818 24.5033C80.8818 26.635 81.6991 27.9851 83.034 27.9851C85.3611 27.9851 91.084 23.9024 95.3467 20.5359C93.6368 23.3015 92.7108 25.9688 94.4792 25.9688C95.9223 25.9688 100.56 22.3553 103.522 19.894C102.671 21.1864 101.92 22.6514 101.92 23.7955C101.92 25.5982 103.171 27.5077 104.556 27.5077C110.178 27.5077 133.527 11.1686 145.114 15.6877C146.315 14.4778 147.091 10.6421 141.953 10.6421ZM93.8287 12.9961C93.1694 15.0291 88.765 17.8443 85.8454 19.1448C88.4147 16.1403 91.9099 13.2674 93.8287 12.9961Z" fill="white"/>
<path fill-rule="evenodd" clip-rule="evenodd" d="M104.406 12.1323C106.158 12.1323 109.369 11.902 111.388 10.1155C112.005 9.57233 111.355 9.25137 109.603 9.4407C107.684 9.65482 105.399 9.72064 104.406 9.41591C103.146 9.03725 102.654 12.1319 104.406 12.1319L104.406 12.1323Z" fill="white"/>
</svg>
