<svg width="40" height="41" viewBox="0 0 40 41" fill="none" xmlns="http://www.w3.org/2000/svg">
<path d="M17.9353 29.8834C17.5123 30.2945 17.3038 30.5501 16.6744 30.6788C16.5629 30.7015 16.5112 30.6548 16.5193 30.5387L16.9634 24.0082C16.9654 23.9732 16.9795 23.9437 17.0057 23.9196C20.9811 20.2487 24.9549 16.5755 28.9269 12.8998C29.0468 12.7895 29.1585 12.6216 29.0387 12.4887C28.8584 12.2857 28.3216 12.5185 28.1283 12.6432C23.2176 15.8037 18.3079 18.9659 13.3993 22.1299C13.3704 22.1484 13.3398 22.1525 13.3076 22.1422C11.2847 21.4972 9.26171 20.8508 7.23876 20.2031C5.28698 19.5776 5.89125 18.5843 7.33242 18.0156C15.5417 14.7747 23.7517 11.5352 31.9623 8.29711C33.6493 7.63149 34.2253 8.94419 33.9232 10.3919C32.4971 17.2246 31.0731 24.058 29.651 30.8921C29.3378 32.3965 28.0981 32.3656 27.1 31.6134C25.0522 30.0692 23.0061 28.5267 20.9617 26.986C20.9495 26.977 20.9347 26.9727 20.9198 26.9738C20.9048 26.975 20.8908 26.9815 20.8801 26.9922C19.9079 27.9594 18.9263 28.9231 17.9353 29.8834Z" fill="white"/>
</svg>
