<svg width="40" height="40" viewBox="0 0 40 40" fill="none" xmlns="http://www.w3.org/2000/svg">
<path fill-rule="evenodd" clip-rule="evenodd" d="M36.5957 10.4793H24.9848V7H36.6565V10.4793H36.5957ZM39.5137 27.8127C38.7842 30.09 36.1094 33 31.003 33C25.8967 33 21.7629 30.0268 21.7629 23.1314C21.7629 16.3625 25.6535 12.8832 30.8815 12.8832C35.9878 12.8832 39.1489 15.983 39.8176 20.5377C39.9392 21.4234 40 22.6253 40 24.2068H26.6261C26.8693 29.7737 32.4012 29.9635 34.2857 27.7494L39.5137 27.8127ZM26.6869 20.854H34.9544C34.772 18.1971 33.0699 16.9951 30.8207 16.9951C28.3891 16.9951 27.0517 18.3236 26.6869 20.854ZM10.7599 32.9367H0V7H11.5502C20.6687 7.12652 20.8511 16.4258 16.0486 18.9562C21.8845 21.1703 22.0669 32.9367 10.7599 32.9367ZM4.9848 17.3747H10.9422C15.1368 17.3747 15.8055 12.1873 10.4559 12.1873H4.9848V17.3747ZM10.6383 22.562H4.9848V27.7494H10.5167C15.6231 27.8127 15.3191 22.562 10.6383 22.562Z" fill="white"/>
</svg>
