<svg width="40" height="41" viewBox="0 0 40 41" fill="none" xmlns="http://www.w3.org/2000/svg">
<path d="M39.9092 30.1106C39.1097 27.5234 33.4464 22.1447 33.1799 21.8042C32.5137 20.9872 32.7135 20.5787 33.1799 19.8298C33.1799 19.8298 38.51 12.2723 39.043 9.75318C39.3096 8.79999 39.043 8.11914 37.7105 8.11914H33.3132C32.1805 8.11914 31.7141 8.73191 31.381 9.34467C31.381 9.34467 29.1823 14.7915 25.9843 18.3319C24.9849 19.3532 24.5185 19.6936 23.9189 19.6936C23.6524 19.6936 23.2526 19.3532 23.2526 18.4681V9.75318C23.2526 8.66382 22.9195 8.11914 21.9867 8.11914H15.2574C14.5912 8.11914 14.1248 8.66382 14.1248 9.14042C14.1248 10.2298 15.7238 10.434 15.8571 13.4298V19.8979C15.8571 21.3277 15.5906 21.6 15.0576 21.6C13.5918 21.6 9.99395 16.1532 7.79528 9.88935C7.39553 8.59574 6.99577 8.11914 5.86312 8.11914H1.53241C0.266505 8.11914 0 8.73191 0 9.34467C0 10.5021 1.46578 16.2894 6.92914 23.9149C10.527 29.0894 15.6572 31.9489 20.2544 31.9489C23.0527 31.9489 23.3859 31.3362 23.3859 30.2468C23.3859 25.2766 23.1193 24.8 24.5185 24.8C25.1848 24.8 26.2508 25.1404 28.8492 27.6596C31.8474 30.5872 32.3138 31.9489 33.9794 31.9489H38.3768C39.6427 31.9489 40.2423 31.3362 39.9092 30.1106Z" fill="white"/>
</svg>
